<?xml version="1.0" encoding="UTF-8"?>
<svg id="Illustration" xmlns="http://www.w3.org/2000/svg" viewBox="0 0 6000 3400">
  <defs>
    <style>
      .cls-1 {
        fill: #e59c28;
      }

      .cls-2 {
        fill: #07155a;
      }

      .cls-3 {
        fill: #df380b;
      }

      .cls-4 {
        fill: #e5e288;
      }

      .cls-5 {
        fill: #ffb6ac;
      }

      .cls-6 {
        fill: #ff5612;
      }

      .cls-7 {
        fill: #00b2c6;
      }

      .cls-8 {
        fill: #18367d;
      }

      .cls-9 {
        fill: #01a1b3;
      }

      .cls-10 {
        fill: #2f3257;
      }

      .cls-11 {
        fill: #e09b12;
      }

      .cls-12 {
        fill: #fff;
      }

      .cls-13 {
        fill: #e9c307;
      }

      .cls-14 {
        fill: #b07166;
      }

      .cls-15 {
        fill: #c17c67;
      }

      .cls-16 {
        fill: #fdb813;
      }

      .cls-17 {
        fill: #444a72;
      }

      .cls-18 {
        fill: #e5e6e7;
      }

      .cls-19 {
        fill: #028897;
      }

      .cls-20 {
        fill: #6a3445;
      }
    </style>
  </defs>
  <g>
    <ellipse class="cls-13" cx="1020.55" cy="3201.08" rx="331.68" ry="37.78"/>
    <g>
      <g>
        <g>
          <rect class="cls-12" x="855.08" y="3019.44" width="276.05" height="86.36" transform="translate(1986.2 6125.24) rotate(-180)"/>
          <rect class="cls-13" x="1129.66" y="3019.44" width="170.51" height="88.43" transform="translate(2429.83 6127.31) rotate(-180)"/>
        </g>
        <g>
          <path class="cls-12" d="M1287.7,3039.38c-6.22-.23-12.43-.34-18.65-.49l-18.65-.28c-12.43-.08-24.86-.19-37.29-.16-12.43.09-24.86.04-37.29.23-12.43.14-24.86.33-37.29.7,12.43.36,24.86.56,37.29.7,12.43.2,24.86.15,37.29.23,12.43.03,24.86-.08,37.29-.16l18.65-.28c6.22-.15,12.43-.27,18.65-.49Z"/>
          <path class="cls-12" d="M1290.57,3070.72c-5.77-.2-11.54-.29-17.31-.43l-17.31-.24c-11.54-.07-23.08-.16-34.62-.14-11.54.07-23.08.03-34.62.2-11.54.12-23.08.29-34.62.61,11.54.32,23.08.48,34.62.61,11.54.17,23.08.13,34.62.2,11.54.02,23.08-.07,34.62-.14l17.31-.24c5.77-.13,11.54-.23,17.31-.43Z"/>
          <path class="cls-12" d="M1278.78,3050.45c-5.54-.14-11.09-.21-16.63-.31l-16.63-.18c-11.09-.05-22.18-.12-33.27-.1-11.09.05-22.18.02-33.27.15-11.09.09-22.18.21-33.27.44,11.09.23,22.18.35,33.27.44,11.09.12,22.18.09,33.27.15,11.09.02,22.18-.05,33.27-.1l16.63-.18c5.54-.1,11.09-.17,16.63-.31Z"/>
          <path class="cls-12" d="M1278.78,3081.72c-5.54-.14-11.09-.21-16.63-.31l-16.63-.18c-11.09-.05-22.18-.12-33.27-.1-11.09.05-22.18.02-33.27.15-11.09.09-22.18.21-33.27.44,11.09.23,22.18.35,33.27.44,11.09.12,22.18.09,33.27.15,11.09.02,22.18-.05,33.27-.1l16.63-.18c5.54-.1,11.09-.17,16.63-.31Z"/>
          <path class="cls-12" d="M1274.47,3058.21c-4.53-.17-9.06-.26-13.59-.38l-13.59-.22c-9.06-.06-18.12-.14-27.17-.12-9.06.07-18.12.03-27.17.18-9.06.11-18.12.26-27.17.54,9.06.28,18.12.43,27.17.54,9.06.15,18.12.11,27.17.18,9.06.02,18.12-.06,27.17-.12l13.59-.22c4.53-.12,9.06-.2,13.59-.38Z"/>
        </g>
        <g>
          <path class="cls-13" d="M1106.15,3039.38c-10.07-.23-20.15-.34-30.22-.49l-30.22-.28c-20.15-.08-40.29-.19-60.44-.16-20.15.09-40.29.04-60.44.23-20.15.14-40.29.33-60.44.7,20.15.36,40.29.56,60.44.7,20.15.2,40.29.15,60.44.23,20.15.03,40.29-.08,60.44-.16l30.22-.28c10.07-.15,20.15-.27,30.22-.49Z"/>
          <path class="cls-13" d="M1110.8,3070.72c-9.35-.2-18.7-.29-28.06-.43l-28.06-.24c-18.7-.07-37.41-.16-56.11-.14-18.7.07-37.41.03-56.11.2-18.7.12-37.41.29-56.11.61,18.7.32,37.41.48,56.11.61,18.7.17,37.41.13,56.11.2,18.7.02,37.41-.07,56.11-.14l28.06-.24c9.35-.13,18.7-.23,28.06-.43Z"/>
          <path class="cls-13" d="M1091.68,3050.45c-8.99-.14-17.97-.21-26.96-.31l-26.96-.18c-17.97-.05-35.94-.12-53.91-.1-17.97.05-35.94.02-53.91.15-17.97.09-35.94.21-53.91.44,17.97.23,35.94.35,53.91.44,17.97.12,35.94.09,53.91.15,17.97.02,35.94-.05,53.91-.1l26.96-.18c8.99-.1,17.97-.17,26.96-.31Z"/>
          <path class="cls-13" d="M1091.68,3081.72c-8.99-.14-17.97-.21-26.96-.31l-26.96-.18c-17.97-.05-35.94-.12-53.91-.1-17.97.05-35.94.02-53.91.15-17.97.09-35.94.21-53.91.44,17.97.23,35.94.35,53.91.44,17.97.12,35.94.09,53.91.15,17.97.02,35.94-.05,53.91-.1l26.96-.18c8.99-.1,17.97-.17,26.96-.31Z"/>
          <path class="cls-13" d="M1084.71,3058.21c-7.34-.17-14.68-.26-22.02-.38l-22.02-.22c-14.68-.06-29.36-.14-44.04-.12-14.68.07-29.36.03-44.04.18-14.68.11-29.36.26-44.04.54,14.68.28,29.36.43,44.04.54,14.68.15,29.36.11,44.04.18,14.68.02,29.36-.06,44.04-.12l22.02-.22c7.34-.12,14.68-.2,22.02-.38Z"/>
        </g>
        <path class="cls-10" d="M845.92,3108.61h454.53c1.62,0,2.94-1.31,2.94-2.94v-87.34c0-1.62-1.31-2.94-2.94-2.94h-454.53c-1.62,0-2.94,1.31-2.94,2.94,0,1.62,1.31,2.94,2.94,2.94h451.6v81.47h-451.6c-1.62,0-2.94,1.31-2.94,2.94,0,1.62,1.31,2.94,2.94,2.94Z"/>
      </g>
      <g>
        <g>
          <rect class="cls-12" x="953.36" y="3111.91" width="276.05" height="87.06"/>
          <rect class="cls-13" x="783.85" y="3111.91" width="170.98" height="87.06"/>
        </g>
        <g>
          <path class="cls-12" d="M796.79,3131.84c6.22-.23,12.43-.34,18.65-.49l18.65-.28c12.43-.08,24.86-.19,37.29-.16,12.43.09,24.86.04,37.29.23,12.43.14,24.86.33,37.29.7-12.43.36-24.86.56-37.29.7-12.43.2-24.86.15-37.29.23-12.43.03-24.86-.08-37.29-.16l-18.65-.28c-6.22-.15-12.43-.27-18.65-.49Z"/>
          <path class="cls-12" d="M793.92,3163.19c5.77-.2,11.54-.29,17.31-.43l17.31-.24c11.54-.07,23.08-.16,34.62-.14,11.54.07,23.08.03,34.62.2,11.54.12,23.08.29,34.62.61-11.54.32-23.08.48-34.62.61-11.54.17-23.08.13-34.62.2-11.54.02-23.08-.07-34.62-.14l-17.31-.24c-5.77-.13-11.54-.23-17.31-.43Z"/>
          <path class="cls-12" d="M805.71,3142.92c5.54-.14,11.09-.21,16.63-.31l16.63-.18c11.09-.05,22.18-.12,33.27-.1,11.09.05,22.18.02,33.27.15,11.09.09,22.18.21,33.27.44-11.09.23-22.18.35-33.27.44-11.09.12-22.18.09-33.27.15-11.09.02-22.18-.05-33.27-.1l-16.63-.18c-5.54-.1-11.09-.17-16.63-.31Z"/>
          <path class="cls-12" d="M805.71,3174.18c5.54-.14,11.09-.21,16.63-.31l16.63-.18c11.09-.05,22.18-.12,33.27-.1,11.09.05,22.18.02,33.27.15,11.09.09,22.18.21,33.27.44-11.09.23-22.18.35-33.27.44-11.09.12-22.18.09-33.27.15-11.09.02-22.18-.05-33.27-.1l-16.63-.18c-5.54-.1-11.09-.17-16.63-.31Z"/>
          <path class="cls-12" d="M810.02,3150.68c4.53-.17,9.06-.26,13.59-.38l13.59-.22c9.06-.06,18.12-.14,27.17-.12,9.06.07,18.12.03,27.17.18,9.06.11,18.12.26,27.17.54-9.06.28-18.12.43-27.17.54-9.06.15-18.12.11-27.17.18-9.06.02-18.12-.06-27.17-.12l-13.59-.22c-4.53-.12-9.06-.2-13.59-.38Z"/>
        </g>
        <g>
          <path class="cls-13" d="M978.34,3131.84c10.07-.23,20.15-.34,30.22-.49l30.22-.28c20.15-.08,40.29-.19,60.44-.16,20.15.09,40.29.04,60.44.23,20.15.14,40.29.33,60.44.7-20.15.36-40.29.56-60.44.7-20.15.2-40.29.15-60.44.23-20.15.03-40.29-.08-60.44-.16l-30.22-.28c-10.07-.15-20.15-.27-30.22-.49Z"/>
          <path class="cls-13" d="M973.69,3163.19c9.35-.2,18.7-.29,28.06-.43l28.06-.24c18.7-.07,37.41-.16,56.11-.14,18.7.07,37.41.03,56.11.2,18.7.12,37.41.29,56.11.61-18.7.32-37.41.48-56.11.61-18.7.17-37.41.13-56.11.2-18.7.02-37.41-.07-56.11-.14l-28.06-.24c-9.35-.13-18.7-.23-28.06-.43Z"/>
          <path class="cls-13" d="M992.8,3142.92c8.99-.14,17.97-.21,26.96-.31l26.96-.18c17.97-.05,35.94-.12,53.91-.1,17.97.05,35.94.02,53.91.15,17.97.09,35.94.21,53.91.44-17.97.23-35.94.35-53.91.44-17.97.12-35.94.09-53.91.15-17.97.02-35.94-.05-53.91-.1l-26.96-.18c-8.99-.1-17.97-.17-26.96-.31Z"/>
          <path class="cls-13" d="M992.8,3174.18c8.99-.14,17.97-.21,26.96-.31l26.96-.18c17.97-.05,35.94-.12,53.91-.1,17.97.05,35.94.02,53.91.15,17.97.09,35.94.21,53.91.44-17.97.23-35.94.35-53.91.44-17.97.12-35.94.09-53.91.15-17.97.02-35.94-.05-53.91-.1l-26.96-.18c-8.99-.1-17.97-.17-26.96-.31Z"/>
          <path class="cls-13" d="M999.78,3150.68c7.34-.17,14.68-.26,22.02-.38l22.02-.22c14.68-.06,29.36-.14,44.04-.12,14.68.07,29.36.03,44.04.18,14.68.11,29.36.26,44.04.54-14.68.28-29.36.43-44.04.54-14.68.15-29.36.11-44.04.18-14.68.02-29.36-.06-44.04-.12l-22.02-.22c-7.34-.12-14.68-.2-22.02-.38Z"/>
        </g>
        <path class="cls-10" d="M1238.57,3201.08h-454.53c-1.62,0-2.94-1.31-2.94-2.94v-87.34c0-1.62,1.31-2.94,2.94-2.94h454.53c1.62,0,2.94,1.31,2.94,2.94s-1.31,2.94-2.94,2.94h-451.6v81.47h451.6c1.62,0,2.94,1.31,2.94,2.94s-1.31,2.94-2.94,2.94Z"/>
      </g>
      <g>
        <g>
          <rect class="cls-12" x="806.01" y="2926.23" width="276.05" height="87.06" transform="translate(1888.08 5939.53) rotate(-180)"/>
          <rect class="cls-13" x="1080.6" y="2926.23" width="170.98" height="87.06" transform="translate(2332.17 5939.53) rotate(-180)"/>
        </g>
        <g>
          <path class="cls-12" d="M1238.64,2946.17c-6.22-.23-12.43-.34-18.65-.49l-18.65-.28c-12.43-.08-24.86-.19-37.29-.16-12.43.09-24.86.04-37.29.23-12.43.14-24.86.33-37.29.7,12.43.36,24.86.56,37.29.7,12.43.2,24.86.15,37.29.23,12.43.03,24.86-.08,37.29-.16l18.65-.28c6.22-.15,12.43-.27,18.65-.49Z"/>
          <path class="cls-12" d="M1241.51,2977.52c-5.77-.2-11.54-.29-17.31-.43l-17.31-.24c-11.54-.07-23.08-.16-34.62-.14-11.54.07-23.08.03-34.62.2-11.54.12-23.08.29-34.62.61,11.54.32,23.08.48,34.62.61,11.54.17,23.08.13,34.62.2,11.54.02,23.08-.07,34.62-.14l17.31-.24c5.77-.13,11.54-.23,17.31-.43Z"/>
          <path class="cls-12" d="M1229.71,2957.24c-5.54-.14-11.09-.21-16.63-.31l-16.63-.18c-11.09-.05-22.18-.12-33.27-.1-11.09.05-22.18.02-33.27.15-11.09.09-22.18.21-33.27.44,11.09.23,22.18.35,33.27.44,11.09.12,22.18.09,33.27.15,11.09.02,22.18-.05,33.27-.1l16.63-.18c5.54-.1,11.09-.17,16.63-.31Z"/>
          <path class="cls-12" d="M1229.71,2988.51c-5.54-.14-11.09-.21-16.63-.31l-16.63-.18c-11.09-.05-22.18-.12-33.27-.1-11.09.05-22.18.02-33.27.15-11.09.09-22.18.21-33.27.44,11.09.23,22.18.35,33.27.44,11.09.12,22.18.09,33.27.15,11.09.02,22.18-.05,33.27-.1l16.63-.18c5.54-.1,11.09-.17,16.63-.31Z"/>
          <path class="cls-12" d="M1225.41,2965.01c-4.53-.17-9.06-.26-13.59-.38l-13.59-.22c-9.06-.06-18.12-.14-27.17-.12-9.06.07-18.12.03-27.17.18-9.06.11-18.12.26-27.17.54,9.06.28,18.12.43,27.17.54,9.06.15,18.12.11,27.17.18,9.06.02,18.12-.06,27.17-.12l13.59-.22c4.53-.12,9.06-.2,13.59-.38Z"/>
        </g>
        <g>
          <path class="cls-13" d="M1057.08,2946.17c-10.07-.23-20.15-.34-30.22-.49l-30.22-.28c-20.15-.08-40.29-.19-60.44-.16-20.15.09-40.29.04-60.44.23-20.15.14-40.29.33-60.44.7,20.15.36,40.29.56,60.44.7,20.15.2,40.29.15,60.44.23,20.15.03,40.29-.08,60.44-.16l30.22-.28c10.07-.15,20.15-.27,30.22-.49Z"/>
          <path class="cls-13" d="M1061.74,2977.52c-9.35-.2-18.7-.29-28.06-.43l-28.06-.24c-18.7-.07-37.41-.16-56.11-.14-18.7.07-37.41.03-56.11.2-18.7.12-37.41.29-56.11.61,18.7.32,37.41.48,56.11.61,18.7.17,37.41.13,56.11.2,18.7.02,37.41-.07,56.11-.14l28.06-.24c9.35-.13,18.7-.23,28.06-.43Z"/>
          <path class="cls-13" d="M1042.62,2957.24c-8.99-.14-17.97-.21-26.96-.31l-26.96-.18c-17.97-.05-35.94-.12-53.91-.1-17.97.05-35.94.02-53.91.15-17.97.09-35.94.21-53.91.44,17.97.23,35.94.35,53.91.44,17.97.12,35.94.09,53.91.15,17.97.02,35.94-.05,53.91-.1l26.96-.18c8.99-.1,17.97-.17,26.96-.31Z"/>
          <path class="cls-13" d="M1042.62,2988.51c-8.99-.14-17.97-.21-26.96-.31l-26.96-.18c-17.97-.05-35.94-.12-53.91-.1-17.97.05-35.94.02-53.91.15-17.97.09-35.94.21-53.91.44,17.97.23,35.94.35,53.91.44,17.97.12,35.94.09,53.91.15,17.97.02,35.94-.05,53.91-.1l26.96-.18c8.99-.1,17.97-.17,26.96-.31Z"/>
          <path class="cls-13" d="M1035.65,2965.01c-7.34-.17-14.68-.26-22.02-.38l-22.02-.22c-14.68-.06-29.36-.14-44.04-.12-14.68.07-29.36.03-44.04.18-14.68.11-29.36.26-44.04.54,14.68.28,29.36.43,44.04.54,14.68.15,29.36.11,44.04.18,14.68.02,29.36-.06,44.04-.12l22.02-.22c7.34-.12,14.68-.2,22.02-.38Z"/>
        </g>
        <path class="cls-10" d="M796.85,3015.41h454.53c1.62,0,2.94-1.31,2.94-2.94v-87.34c0-1.62-1.31-2.94-2.94-2.94h-454.53c-1.62,0-2.94,1.31-2.94,2.94s1.31,2.94,2.94,2.94h451.6v81.47h-451.6c-1.62,0-2.94,1.31-2.94,2.94,0,1.62,1.31,2.94,2.94,2.94Z"/>
      </g>
    </g>
  </g>
  <g>
    <g>
      <g>
        <g>
          <g>
            <path class="cls-9" d="M1696.53,2473.17c22.64-111.01,20.37-198.61,14.48-252.55-6.39-58.54-18.34-91.29-18.46-91.62l-4,1.48c.12.32,11.92,32.71,18.25,90.79,5.84,53.6,8.07,140.67-14.44,251.04l4.18.85Z"/>
            <g>
              <path class="cls-7" d="M1545.59,1994.39s34.44-12.69,78.48,20.47c0,0-1-16.73-44.21-31.76,0,0,16.87-6.77,41.69-8.61,24.82-1.85,75.9,13.69,81.04,46.82,0,0,69.02,13.25,50.43,70.25,0,0-18.76-26.07-30.29-33.16,0,0,17.02,38.3,24.31,49.7,0,0-10.7,37.05-64.56,35.71,0,0-2.26-47.58-13.11-60.27,0,0-1.93,33.21-13.31,55.4,0,0-19.33,3.83-29.88,1.92,0,0-2.05-28.22-1.82-34.42,0,0-8.99,26.27-15.11,30.2-6.12,3.93-14.98,2.48-25.78-2.01-10.79-4.48-24.96-10.77-35.85,5.46,0,0-1.62-23.38-11.12-37.92-9.51-14.54-13.53-30.32-11.95-34.71,1.59-4.4,27.81-20.35,45.89-20.25,0,0-23.89-6.29-45.6,4.57,0,0-.64-28.87,20.74-57.39Z"/>
              <g>
                <path class="cls-9" d="M1726.77,2067.33c5.49,12.04,15.22,32.86,20.27,40.77,0,0-10.7,37.05-64.56,35.71,0,0-2.26-47.58-13.11-60.27,0,0-1.93,33.21-13.31,55.4,0,0-19.33,3.83-29.88,1.92,0,0-2.05-28.22-1.82-34.42,0,0-8.99,26.27-15.11,30.2-6.12,3.93-14.98,2.48-25.78-2.01-10.79-4.48-24.96-10.77-35.85,5.46,0,0-.83-12.02-4.81-24.18,71.81-61.96,142.25-58.96,183.95-48.58Z"/>
                <path class="cls-9" d="M1735.25,2069.64c8.69,2.58,15.72,5.33,20.77,7.54-.37,4.45-1.32,9.23-3,14.36,0,0-8.62-11.98-17.77-21.91Z"/>
              </g>
              <g>
                <path class="cls-9" d="M1547.49,2138.59l.13,1.5,3.32-4.17c15.16-53.37,55.23-78.85,86.56-93.54,34.02-15.95,67.96-20.3,68.27-20.33l-3.18-.75-.13-.77c-.31.03-31.9,3.43-66.33,19.55-31.81,14.89-73.24,44.29-88.64,98.51Z"/>
                <path class="cls-9" d="M1685.32,2025.06l2.46-1.02c-.69-1.17-17.14-28.77-77.7-48.31l-5.14.81c31,10.01,54.13,23.71,64.71,32.25,11.45,9.24,15.64,16.2,15.68,16.27Z"/>
                <path class="cls-9" d="M1529.75,2024.6c45.66-1.82,96.81,22.04,97.28,22.28l1.23-2.16c-.48-.25-50.9-25.02-97.41-23.17l-1.1,3.05Z"/>
                <path class="cls-9" d="M1529.85,2090.05c29.74-17.64,67.36-25.07,67.74-25.14l2.31-2.68c-.39.06-40.97,7.37-71.15,25.27l1.11,2.55Z"/>
                <path class="cls-9" d="M1639.51,2141.15l3.01-.27c12.93-50.55-1.07-100.14-1.22-100.63l-2.71.43c.14.49,13.69,50.53.92,100.47Z"/>
                <path class="cls-9" d="M1701.61,2142.51l3.21-.62c11.3-56.27-30.59-113.96-31.02-114.53l-2.29,1.27c.41.56,41.18,58.64,30.09,113.88Z"/>
              </g>
            </g>
          </g>
          <g>
            <path class="cls-9" d="M1677.58,2517.85c8.61-63.06,24.69-152.07,52.39-218.01,16.57-39.44,27.35-49.5,27.48-49.62l-5.21-4.95c-2.17,2.02-49.5,50.82-79.69,271.9l5.02.69Z"/>
            <g>
              <path class="cls-9" d="M1902.61,2150.75s22.28-61.02,70.18-49.92c0,0-16.7-12.51-32.42-10.52-33.06,4.17-61.34,66.21-61.34,66.21l23.57-5.77Z"/>
              <path class="cls-7" d="M1940.37,2090.31s-32.8,23.2-39.06,73.83c0,0-13.18,6.04-20,5.93,0,0,5.91,5.48,16.69,6.95,0,0-6.76,76.04-47.52,99.14,0,0-25.21-10.46-36.13-17.82,0,0,9.48,18.14,21.16,23.21,0,0-24.08,16.61-48.87,5.88-24.79-10.73-35.37-24.58-37.59-38.39,0,0,84.35-150.75,191.33-158.73Z"/>
              <path class="cls-9" d="M1850.48,2276.15s-25.21-10.46-36.13-17.82c0,0,9.48,18.14,21.16,23.21,0,0-24.08,16.61-48.87,5.88-13.5-5.85-22.76-12.62-28.78-19.81,71.43-12.17,115.01-46.69,136.73-69.32-5.11,24.28-17.2,62.61-44.11,77.86Z"/>
              <path class="cls-9" d="M1802.74,2174.75c.29-.24,41.21-27.8,104.47-35.49l1.17-3.32c-64.34,7.81-98.74,31.5-99.97,32.49l-5.67,6.32Z"/>
              <path class="cls-9" d="M1772.23,2213.32c.29-.18,35.54-18.69,120.54-7.11l.74-3.08c-86.57-11.79-115.95,3.74-117.15,4.49l-1.14,1.56-1.19,1.64-1.8,2.5Z"/>
              <path class="cls-9" d="M1754.7,2239.56c.35-.17,36.62-17.41,121.19-3.13.77.13,5.44,1.05,6.21,1.18l1.33-3.02c-87.63-15.28-124.51-.16-125.97.58l-2.76,4.39Z"/>
            </g>
          </g>
          <g>
            <path class="cls-9" d="M1704.63,2497.58l4.91-1.27c-31.16-120.64-76.09-202.58-76.54-203.4l-4.44,2.45c.45.81,45.09,82.23,76.07,202.21Z"/>
            <g>
              <path class="cls-9" d="M1646.18,2254.7s20.98,10.89,29.97,23.14c8.98,12.24,2.81,22.81-8.32,24.48-11.13,1.68-32.26-6.01-36.54-1.82-4.28,4.19.34,16.06-9.74,17.81-10.07,1.75-25.33-.43-32.49-7.39-7.16-6.97,7.92-37.82,16.84-46.22,8.92-8.4,29.79-13.91,40.29-10Z"/>
              <path class="cls-7" d="M1652.69,2258.61s-22.19-6.68-37.32,19.73c-15.13,26.41-35.35,58.05-66.21,67.36,0,0-5.2-7.16-5.89-13.34,0,0-2.71,11.19-1.38,17.09,0,0-29.19,6.15-44.75,16,0,0-16.24-48.49-10-87.99,0,0,18.85-3.46,28.1-2.15,0,0-15.76-7.36-22.1-7.26,0,0,5.27-12.33,24.71-20.92,19.43-8.59,33.08-9.48,49.63-4.37,16.55,5.11,23.3,6.46,37.77,5.74,14.47-.72,31.01-1.28,47.44,10.11Z"/>
              <g>
                <path class="cls-9" d="M1498.58,2364.57c25.59-82.13,95.89-115.59,96.63-115.97l-5.04-.37c-.75.39-68.13,30.62-94.07,113.87l1.05,3.35,1.44-.88Z"/>
                <path class="cls-9" d="M1565.93,2337.99l2.46-1.61c-13.02-19.87-20.96-52.8-21.03-53.1l-2.57,2.56c.08.31,7.82,31.84,21.14,52.16Z"/>
                <path class="cls-9" d="M1561,2271.13l2.05-2.89c-.4,0-39.77-.38-62.44-9.9l-2.21,2.26c23.19,9.74,60.95,10.52,62.59,10.54Z"/>
                <path class="cls-9" d="M1524.15,2310.73l2-3.57c-.19.04-20.73,4.69-38.54,15.8l.42,2.9c17.37-10.84,35.94-15.1,36.12-15.14Z"/>
              </g>
            </g>
          </g>
        </g>
        <g>
          <path class="cls-19" d="M1587.8,2425.15h221.71c7.26,0,13.16,5.9,13.16,13.16v158.31c0,31.92-25.91,57.83-57.83,57.83h-132.38c-31.92,0-57.83-25.91-57.83-57.83v-158.31c0-7.26,5.9-13.16,13.16-13.16Z"/>
          <path class="cls-7" d="M1807.57,2425.15h-217.82c-8.34,0-15.11,6.76-15.11,15.11v144.1c0,1.21.03,2.4.09,3.59,25.62,7.8,60.94,15.54,100.32,15.54,67.54,0,118.28-50.94,147.62-154.18v-9.06c0-8.34-6.76-15.11-15.11-15.11Z"/>
        </g>
      </g>
      <g>
        <ellipse class="cls-13" cx="1696.08" cy="2955.9" rx="253.47" ry="23.6"/>
        <g>
          <rect class="cls-10" x="1587.02" y="2843.33" width="224.4" height="25.18"/>
          <g>
            <g>
              <path class="cls-17" d="M1657.31,2695.61l-80.81,257.34c-.45,1.42-1.77,2.39-3.26,2.39h-39.5c-2.17,0-3.79-2-3.34-4.13l54.75-255.6h72.17Z"/>
              <polygon class="cls-10" points="1654.95 2703.13 1583.53 2703.13 1577.85 2729.68 1651.06 2715.52 1654.95 2703.13"/>
            </g>
            <g>
              <path class="cls-17" d="M1740,2695.61l80.81,257.34c.45,1.42,1.77,2.39,3.26,2.39h39.5c2.17,0,3.79-2,3.34-4.13l-54.75-255.6h-72.17Z"/>
              <polygon class="cls-10" points="1745.01 2711.54 1814.37 2705.88 1813.78 2703.13 1742.36 2703.13 1745.01 2711.54"/>
            </g>
            <rect class="cls-17" x="1542.29" y="2652.01" width="311.23" height="51.12" rx="25.56" ry="25.56"/>
          </g>
          <g>
            <rect class="cls-17" x="1553.57" y="2770.54" width="287.67" height="24.06" rx="12.03" ry="12.03"/>
            <polygon class="cls-10" points="1626.23 2794.59 1563.94 2794.59 1562.55 2801.1 1625.5 2796.89 1626.23 2794.59"/>
            <polygon class="cls-10" points="1771.09 2794.59 1773.95 2803.7 1834.07 2797.85 1833.37 2794.59 1771.09 2794.59"/>
          </g>
        </g>
      </g>
    </g>
    <g>
      <ellipse class="cls-4" cx="4427.78" cy="2886.05" rx="169.49" ry="26.76"/>
      <g>
        <g>
          <g>
            <path class="cls-9" d="M4430,2708.58c-23.6-115.69-21.23-206.99-15.09-263.2,6.66-61.01,19.12-95.15,19.24-95.48l4.17,1.54c-.12.33-12.42,34.09-19.01,94.62-6.08,55.86-8.41,146.6,15.05,261.63l-4.36.89Z"/>
            <g>
              <path class="cls-7" d="M4587.31,2209.59s-35.9-13.23-81.8,21.33c0,0,1.04-17.44,46.08-33.1,0,0-17.58-7.05-43.45-8.97-25.87-1.92-79.1,14.27-84.46,48.79,0,0-71.93,13.8-52.56,73.21,0,0,19.55-27.17,31.57-34.56,0,0-17.74,39.92-25.33,51.8,0,0,11.16,38.62,67.29,37.22,0,0,2.36-49.59,13.66-62.81,0,0,2.02,34.61,13.87,57.74,0,0,20.15,3.99,31.14,2,0,0,2.14-29.41,1.9-35.87,0,0,9.37,27.38,15.74,31.47,6.37,4.09,15.62,2.58,26.86-2.09,11.25-4.67,26.01-11.23,37.37,5.69,0,0,1.68-24.37,11.59-39.52,9.91-15.16,14.1-31.6,12.45-36.18-1.66-4.58-28.99-21.21-47.83-21.1,0,0,24.9-6.56,47.52,4.76,0,0,.66-30.09-21.61-59.82Z"/>
              <g>
                <path class="cls-9" d="M4398.48,2285.62c-5.73,12.54-15.86,34.25-21.13,42.49,0,0,11.16,38.62,67.29,37.22,0,0,2.36-49.59,13.66-62.81,0,0,2.02,34.61,13.87,57.74,0,0,20.15,3.99,31.14,2,0,0,2.14-29.41,1.9-35.87,0,0,9.37,27.38,15.74,31.47,6.37,4.09,15.62,2.58,26.86-2.09,11.25-4.67,26.01-11.23,37.37,5.69,0,0,.87-12.53,5.01-25.21-74.84-64.58-148.25-61.45-191.71-50.63Z"/>
                <path class="cls-9" d="M4389.64,2288.03c-9.05,2.69-16.38,5.56-21.64,7.86.38,4.64,1.38,9.62,3.12,14.97,0,0,8.99-12.49,18.52-22.83Z"/>
              </g>
              <g>
                <path class="cls-9" d="M4585.33,2359.88l-.14,1.57-3.46-4.35c-15.8-55.63-57.56-82.18-90.22-97.48-35.46-16.62-70.82-21.16-71.15-21.19l3.31-.78.13-.8c.32.03,33.25,3.58,69.13,20.37,33.16,15.52,76.33,46.16,92.38,102.67Z"/>
                <path class="cls-9" d="M4441.68,2241.57l-2.56-1.07c.72-1.22,17.86-29.98,80.98-50.35l5.36.85c-32.3,10.44-56.41,24.71-67.44,33.61-11.93,9.63-16.3,16.89-16.34,16.96Z"/>
                <path class="cls-9" d="M4603.81,2241.08c-47.58-1.9-100.89,22.97-101.39,23.22l-1.28-2.25c.5-.26,53.05-26.08,101.52-24.15l1.15,3.18Z"/>
                <path class="cls-9" d="M4603.7,2309.29c-31-18.39-70.2-26.13-70.6-26.2l-2.4-2.8c.41.07,42.7,7.68,74.16,26.34l-1.15,2.65Z"/>
                <path class="cls-9" d="M4489.42,2362.55l-3.13-.28c-13.47-52.68,1.12-104.37,1.27-104.88l2.83.45c-.15.51-14.27,52.66-.96,104.71Z"/>
                <path class="cls-9" d="M4424.7,2363.97l-3.34-.65c-11.77-58.64,31.88-118.77,32.32-119.36l2.38,1.33c-.43.58-42.92,61.12-31.36,118.68Z"/>
              </g>
            </g>
          </g>
          <g>
            <path class="cls-9" d="M4449.75,2755.15c-8.97-65.72-25.73-158.49-54.6-227.21-17.27-41.11-28.51-51.59-28.64-51.72l5.43-5.16c2.26,2.11,51.59,52.97,83.05,283.37l-5.23.72Z"/>
            <g>
              <path class="cls-9" d="M4215.22,2372.55s-23.22-63.6-73.14-52.02c0,0,17.4-13.03,33.79-10.97,34.46,4.35,63.92,69,63.92,69l-24.57-6.01Z"/>
              <path class="cls-7" d="M4175.86,2309.56s34.18,24.18,40.71,76.95c0,0,13.74,6.3,20.84,6.18,0,0-6.16,5.71-17.39,7.25,0,0,7.04,79.25,49.52,103.32,0,0,26.28-10.9,37.65-18.57,0,0-9.88,18.9-22.05,24.19,0,0,25.1,17.31,50.93,6.12,25.83-11.18,36.86-25.62,39.18-40.01,0,0-87.91-157.11-199.4-165.42Z"/>
              <path class="cls-9" d="M4269.55,2503.25s26.28-10.9,37.65-18.57c0,0-9.88,18.9-22.05,24.19,0,0,25.1,17.31,50.93,6.12,14.07-6.09,23.73-13.15,30-20.64-74.44-12.68-119.86-48.66-142.5-72.25,5.32,25.31,17.92,65.25,45.97,81.14Z"/>
              <path class="cls-9" d="M4319.3,2397.57c-.31-.25-42.95-28.98-108.88-36.99l-1.22-3.46c67.06,8.14,102.91,32.83,104.19,33.86l5.91,6.59Z"/>
              <path class="cls-9" d="M4351.1,2437.77c-.3-.19-37.04-19.47-125.63-7.41l-.77-3.21c90.22-12.28,120.84,3.89,122.1,4.68l1.19,1.63,1.24,1.71,1.87,2.61Z"/>
              <path class="cls-9" d="M4369.37,2465.12c-.36-.18-38.17-18.15-126.31-3.26-.8.13-5.67,1.09-6.47,1.23l-1.39-3.15c91.33-15.93,129.77-.16,131.29.6l2.88,4.58Z"/>
            </g>
          </g>
          <g>
            <path class="cls-9" d="M4421.55,2734.03l-5.12-1.32c32.47-125.73,79.3-211.13,79.77-211.98l4.62,2.56c-.47.84-46.99,85.7-79.28,210.74Z"/>
            <g>
              <path class="cls-9" d="M4482.46,2480.89s-21.87,11.35-31.23,24.11c-9.36,12.76-2.92,23.77,8.67,25.52,11.6,1.75,33.63-6.26,38.08-1.9,4.46,4.36-.35,16.74,10.15,18.57,10.5,1.82,26.4-.44,33.86-7.71,7.47-7.26-8.25-39.42-17.55-48.17-9.3-8.75-31.05-14.49-41.99-10.42Z"/>
              <path class="cls-7" d="M4475.68,2484.97s23.13-6.96,38.89,20.57c15.77,27.53,36.84,60.5,69,70.2,0,0,5.42-7.46,6.14-13.9,0,0,2.83,11.66,1.44,17.81,0,0,30.42,6.41,46.63,16.67,0,0,16.92-50.53,10.42-91.71,0,0-19.64-3.61-29.29-2.24,0,0,16.42-7.67,23.03-7.57,0,0-5.5-12.85-25.75-21.8-20.25-8.95-34.47-9.88-51.72-4.55-17.25,5.33-24.28,6.73-39.36,5.98-15.08-.75-32.32-1.33-49.44,10.54Z"/>
              <g>
                <path class="cls-9" d="M4636.29,2595.4c-26.67-85.59-99.94-120.46-100.7-120.87l5.25-.38c.78.41,71,31.91,98.04,118.68l-1.09,3.49-1.5-.91Z"/>
                <path class="cls-9" d="M4566.11,2567.69l-2.57-1.68c13.57-20.7,21.84-55.03,21.92-55.34l2.68,2.67c-.08.33-8.15,33.18-22.03,54.36Z"/>
                <path class="cls-9" d="M4571.24,2498.02l-2.14-3.01c.41,0,41.45-.39,65.07-10.32l2.3,2.35c-24.16,10.15-63.52,10.97-65.24,10.98Z"/>
                <path class="cls-9" d="M4609.65,2539.29l-2.09-3.72c.2.04,21.6,4.89,40.17,16.47l-.43,3.02c-18.1-11.3-37.45-15.74-37.65-15.78Z"/>
              </g>
            </g>
          </g>
        </g>
        <g>
          <path class="cls-11" d="M4358.79,2658.53h137.97c33.26,0,60.27,27,60.27,60.27v164.99c0,7.57-6.15,13.72-13.72,13.72h-231.07c-7.57,0-13.72-6.15-13.72-13.72v-164.99c0-33.26,27-60.27,60.27-60.27Z" transform="translate(8855.55 5556.05) rotate(180)"/>
          <path class="cls-16" d="M4314.27,2658.53h227.01c8.7,0,15.75,7.05,15.75,15.75v150.18c0,1.26-.03,2.5-.09,3.75-26.7,8.13-63.51,16.2-104.56,16.2-70.39,0-123.27-53.09-153.85-160.68v-9.44c0-8.7,7.05-15.75,15.75-15.75Z"/>
        </g>
      </g>
    </g>
  </g>
  <g>
    <g>
      <ellipse class="cls-13" cx="3288" cy="3170.86" rx="493.9" ry="52.74"/>
      <g>
        <g>
          <path class="cls-20" d="M3558.25,3163.25c-8.64-.95-16.08-7.33-17.94-16.31-192.2-920.94-578.47-3010.39-583.73-3038.38-2.12-11.2,5.25-21.99,16.45-24.11,11.22-2.09,22,5.25,24.11,16.46,5.28,27.98,391.47,2117.03,583.58,3037.59,2.33,11.16-4.82,22.09-15.98,24.42-2.19.46-4.37.55-6.47.32Z"/>
          <path class="cls-20" d="M3137.67,3202.58c-8.64-.95-16.08-7.33-17.94-16.31-192.21-920.97-577.64-3031.7-582.69-3058.8-2.09-11.21,5.31-21.98,16.51-24.07,11.11-2.06,21.98,5.29,24.06,16.51,5.05,27.1,390.38,2137.38,582.51,3057.93,2.33,11.16-4.82,22.09-15.98,24.42-2.19.46-4.37.55-6.47.32Z"/>
          <path class="cls-20" d="M3037.36,2671.46c-9.96-1.09-17.9-9.32-18.34-19.64-.49-11.39,8.35-21.01,19.74-21.49l413.15-17.48c11.51-.47,21.01,8.36,21.49,19.75.49,11.39-8.35,21.01-19.74,21.49l-413.15,17.48c-1.07.04-2.12,0-3.15-.11Z"/>
          <path class="cls-20" d="M2971.79,2316.76c-9.96-1.09-17.9-9.32-18.34-19.64-.49-11.39,8.35-21.01,19.74-21.49l413.15-17.47c11.5-.44,21.01,8.37,21.49,19.75.49,11.39-8.35,21.01-19.74,21.49l-413.15,17.47c-1.07.04-2.12,0-3.15-.11Z"/>
          <path class="cls-20" d="M2895.75,1966.46c-9.96-1.09-17.9-9.32-18.34-19.64-.49-11.39,8.35-21.01,19.74-21.49l413.15-17.47c11.5-.47,21.01,8.36,21.49,19.75.49,11.39-8.35,21.01-19.74,21.49l-413.15,17.47c-1.07.04-2.12,0-3.15-.11Z"/>
          <path class="cls-20" d="M2837.23,1614.63c-9.96-1.09-17.9-9.32-18.34-19.64-.49-11.39,8.35-21.01,19.74-21.49l413.17-17.48c11.47-.43,21.01,8.36,21.49,19.75.49,11.39-8.35,21.01-19.74,21.49l-413.17,17.48c-1.07.04-2.12,0-3.15-.11Z"/>
          <path class="cls-20" d="M2763.76,1226.4c-9.96-1.09-17.9-9.32-18.34-19.64-.49-11.39,8.35-21.01,19.74-21.49l413.15-17.47c11.5-.46,21.01,8.37,21.49,19.75.49,11.39-8.35,21.01-19.74,21.49l-413.15,17.47c-1.07.04-2.12,0-3.15-.11Z"/>
          <path class="cls-20" d="M2688.85,838.01c-9.96-1.09-17.9-9.32-18.34-19.64-.49-11.39,8.35-21.01,19.74-21.49l413.15-17.47c11.52-.48,21.01,8.36,21.49,19.75.49,11.39-8.35,21.01-19.74,21.49l-413.15,17.47c-1.07.04-2.12,0-3.15-.11Z"/>
          <path class="cls-20" d="M2620.07,494.79c-9.96-1.09-17.9-9.32-18.34-19.64-.49-11.39,8.35-21.01,19.74-21.49l413.15-17.47c11.51-.43,21.01,8.37,21.49,19.75.49,11.39-8.35,21.01-19.74,21.49l-413.15,17.47c-1.07.04-2.12,0-3.15-.11Z"/>
        </g>
        <g>
          <g>
            <path class="cls-16" d="M3497.99,428.2s96.6,109.61,122.69,112.48c26.08,2.86,10.05-160.26,10.05-160.26l80.04-7.72s26.73,225.92-33.81,307.95c-60.54,82.04-234.42-74.49-263.46-107.63-29.04-33.15-31.49-79.82-2.75-118.2,28.74-38.38,67.09-43.78,87.25-26.63Z"/>
            <path class="cls-1" d="M3633.84,361.95c21.34-4.96,44.99-5.08,70.65-.98,3.93.63,7.21,3.34,8.68,7.04,3.65,9.21,10.42,27.05,13.04,38.83.56,2.53-1.33,4.92-3.92,4.96l-92.5,1.38c-2.12.03-3.91-1.54-4.11-3.65-.75-7.56-2.15-25.13-.64-37.83.57-4.78,4.12-8.65,8.81-9.75Z"/>
            <polygon class="cls-1" points="3467.88 623.24 3507.15 652.95 3509.67 515.6 3467.88 623.24"/>
          </g>
          <g>
            <g>
              <g>
                <path class="cls-5" d="M2998.72,1808.19l-18.77,54.31s13.87,36.88,82.07,11.24l18.74-49.54-82.05-16.01Z"/>
                <g>
                  <path class="cls-10" d="M2970.42,1857.15c2.26-4.84,8.36-6.56,12.75-3.52,6.22,4.3,16.37,9.88,31.04,13.67,20.68,5.34,36.45,4.05,47.4.68,5.48-1.69,11.4-.21,15.31,3.98,7.69,8.25,21.23,21.49,36.21,30.29,23.14,13.59,76.44,25.79,68.64,63.74l-224.89-64.52s3.02-21.79,13.53-44.31Z"/>
                  <path class="cls-17" d="M2950.26,1933.43h233.96v.09c0,8.36-6.78,15.14-15.14,15.14h-203.68c-8.36,0-15.14-6.78-15.14-15.14v-.09h0Z" transform="translate(654.24 -770.61) rotate(16.01)"/>
                  <g>
                    <rect class="cls-12" x="3075.75" y="1875.16" width="5.85" height="21.31" rx="2.91" ry="2.91" transform="translate(2112.72 -1592.9) rotate(42.99)"/>
                    <rect class="cls-12" x="3085.63" y="1884.37" width="5.85" height="21.31" rx="2.91" ry="2.91" transform="translate(2121.62 -1597.15) rotate(42.99)"/>
                    <rect class="cls-12" x="3095.51" y="1893.58" width="5.85" height="21.31" rx="2.91" ry="2.91" transform="translate(2130.59 -1601.43) rotate(42.99)"/>
                  </g>
                </g>
              </g>
              <g>
                <path class="cls-5" d="M2539.59,1262.83l-52.82-9.73s-39.11,4.72-30.39,77.06l48.2,8.58,35.01-75.91Z"/>
                <g>
                  <path class="cls-10" d="M2494.22,1245.1c4.17,3.34,4.39,9.68.4,13.22-5.65,5.02-13.48,13.56-20.64,26.91-10.09,18.82-12.58,34.45-11.91,45.88.34,5.72-2.5,11.13-7.5,13.93-9.84,5.52-25.91,15.53-38.01,28-18.7,19.26-43.19,68.14-78.2,51.57l116.02-203.17s20.45,8.1,39.84,23.66Z"/>
                  <path class="cls-17" d="M2272.78,1311.64h233.96v.09c0,8.36-6.78,15.14-15.14,15.14h-203.68c-8.36,0-15.14-6.78-15.14-15.14v-.09h0Z" transform="translate(4720.44 -101.77) rotate(119.73)"/>
                  <g>
                    <rect class="cls-12" x="2437.78" y="1332.81" width="5.85" height="21.31" rx="2.91" ry="2.91" transform="translate(5218.3 1126.93) rotate(146.71)"/>
                    <rect class="cls-12" x="2426.49" y="1340.22" width="5.85" height="21.31" rx="2.91" ry="2.91" transform="translate(5201.64 1146.74) rotate(146.71)"/>
                    <rect class="cls-12" x="2415.19" y="1347.64" width="5.85" height="21.31" rx="2.91" ry="2.91" transform="translate(5184.97 1166.56) rotate(146.71)"/>
                  </g>
                </g>
              </g>
              <path class="cls-17" d="M3086.07,1841.14l-106.75-22.1s32.18-162.65,66.35-254.84c34.18-92.19,30.86-89.71,57.68-173.19,26.82-83.48,134.55-486.83,138.09-519.81l28.55-19.62,161.24-6.28s22.29,137.75-68.75,363.53c-91.05,225.78-276.4,632.32-276.4,632.32Z"/>
              <path class="cls-17" d="M3255.42,957.11s-131.52,193.94-191.45,312.23c-87.89,173.47-561.01,80.67-561.01,80.67l2.49-102.8s365.74,34.8,397.08-27.42c70.92-140.8,212.92-418.75,212.92-418.75,0,0,114.92,52.07,215.35,48.15l-75.38,107.91Z"/>
              <path class="cls-10" d="M3431.47,882.83s3.86,10.55.83,43.27c0,0-97.97-5.65-266.83-87.71,0,0,200.73,43.68,266,44.44Z"/>
            </g>
            <g>
              <g>
                <path class="cls-16" d="M3420.95,405.93s-184.68-11.47-244.71-14.03c-60.03-2.56-68.42,56.34-59.41,126.93,9.01,70.59,41,135.81-11.27,288.34,0,0,138.57,81.34,340.39,93.99,0,0,6.37-130.41,30.49-215.76,24.12-85.36,50.93-219.74,30.59-247.52-14.49-19.79-39.93-28.17-86.07-31.95Z"/>
                <path class="cls-1" d="M3166.16,499.46s21.01,61.38-1.21,146.73c-22.22,85.34-21.89,179.87-21.89,179.87l-43.05-20.53s52.22-129.23,16.81-286.69l49.34-19.37Z"/>
              </g>
              <g>
                <g>
                  <path class="cls-5" d="M3368.4,378.28l-3.32,31.79s-30.4,21.84-83.38-7.35c0,0,7.16-20.95,9.41-31.1,2.25-10.16,12.5-49.4,12.5-49.4l64.79,56.06Z"/>
                  <path class="cls-15" d="M3368.45,377.53l-1.59,15.49s-22.72,3.89-44.99-19.47l46.58,3.98Z"/>
                  <path class="cls-5" d="M3336.68,273.58c12.1-3.08,30.28,2.84,41.4,21.08,11.12,18.23,18.52,24.96,15.7,47.3-2.82,22.34-7.88,34.79-26.27,40.87-18.39,6.08-33.23.65-47.15-10.47-13.92-11.12-23.68-27.1-19.68-49.68,4-22.58,7.35-41.79,36-49.1Z"/>
                  <path class="cls-20" d="M3328.21,325.09c-8.46,4.6-18.87,5.61-21.63,13.02-2.76,7.41,1.55,15.43,4.45,19.02,2.9,3.59,6.06,8.74-.22,12.82-6.28,4.08-13.71,15.12-19.78,4.49-6.07-10.63-26.86-40.96-20.89-65.9,5.97-24.94,19.61-39.7,31.42-44.98,11.8-5.28,16.11-6.7,29.41-9.82,15.4-3.62,34.73.22,41.96,9.75,7.23,9.53,3.95,19.75-3.91,22.86-6.47,2.56-21.27-8.35-35.48,8.37-14.21,16.73-5.32,30.37-5.32,30.37Z"/>
                  <path class="cls-12" d="M3370.9,358.02c5.57-.89,9.37-6.12,8.48-11.69l-20.17,3.21c.89,5.57,6.12,9.37,11.69,8.48Z"/>
                  <circle class="cls-5" cx="3309.94" cy="343.2" r="18.38"/>
                </g>
                <polygon class="cls-12" points="3328.47 417.02 3316.15 446.43 3274.27 397.03 3283.39 397.66 3328.47 417.02"/>
                <polygon class="cls-12" points="3338.52 416.46 3345.23 447.63 3375.65 403.01 3365.86 402.56 3338.52 416.46"/>
              </g>
              <g>
                <path class="cls-10" d="M3368.5,335.09c-.47.05-.94-.18-1.16-.62-.29-.57-.07-1.27.5-1.56l5.6-2.88-9.85-13.83c-.37-.52-.25-1.25.27-1.62.52-.37,1.25-.25,1.62.27l10.63,14.92c.2.27.26.62.18.95-.08.33-.3.6-.6.76l-6.79,3.49c-.13.07-.26.11-.4.12Z"/>
                <circle class="cls-10" cx="3379.44" cy="315.43" r="2.49"/>
                <circle class="cls-10" cx="3349.87" cy="322.87" r="2.49"/>
              </g>
            </g>
          </g>
          <path class="cls-16" d="M3192.42,520.05s-141.36,30.69-269.28-.87c-127.92-31.56-241.83-73.11-241.83-73.11l28.71-77.35s215.12,36.53,278.35,39.72c63.23,3.19,124.03-19.84,187.87-16.55,63.84,3.29,82.54,30.18,76.98,68.06-5.56,37.88-60.8,60.09-60.8,60.09Z"/>
          <path class="cls-1" d="M2656.7,430.68l20.39-67.08c1.26-4.16,5.49-6.66,9.74-5.74,9.7,2.09,26.61,5.81,37.38,8.72,2.49.67,3.89,3.3,3.06,5.74l-26.94,79.98c-.8,2.38-3.39,3.64-5.75,2.78-7.5-2.72-23.19-8.67-33.91-14.63-3.46-1.93-5.14-5.98-3.99-9.77Z"/>
          <polygon class="cls-5" points="2675.39 369.2 2615.56 346.99 2628.91 418.25 2657.98 426.47 2675.39 369.2"/>
          <path class="cls-5" d="M2568.44,319.62s21.38,10.35,24.81,24.92c3.43,14.57,19.22,52.77-9.17,58.6-28.39,5.83-29.7-70.99-29.7-70.99,0,0-1.98-11.41,14.06-12.54Z"/>
        </g>
        <g>
          <path class="cls-5" d="M3693.45,359.45s12.46-48.1.67-69.52c-11.79-21.42-29.63-29.18-48.06-21.19-18.43,7.98-7.31,92.16-7.31,92.16,0,0,27.33-4.46,54.7-1.45Z"/>
          <g>
            <g>
              <path class="cls-2" d="M3558.66,280.57l-158.1,9.26c-2.49.15-4.55,3.16-5.82,7.81l164.36-9.62-.44-7.45Z"/>
              <path class="cls-2" d="M3403.16,334.18l158.1-9.26-1.07-18.23-166.35,9.74c1.31,10.32,5.19,17.99,9.31,17.74Z"/>
              <path class="cls-8" d="M3394.74,297.64c-1.09,4-1.6,9.19-1.27,14.85.08,1.35.21,2.66.37,3.94l166.35-9.74-1.09-18.68-164.36,9.62Z"/>
              <path class="cls-18" d="M3397.62,316.21c-.15-1.24-.27-2.52-.35-3.82-.33-5.69.16-10.91,1.23-14.97.97-3.68,2.42-6.4,4.18-7.59-.63-.33-1.28-.5-1.93-.46-2.6.15-4.75,3.36-6.05,8.28-1.07,4.06-1.56,9.29-1.23,14.97.08,1.31.2,2.58.36,3.82,1.32,10.7,5.32,18.67,9.58,18.42.65-.04,1.27-.28,1.87-.69-3.49-1.82-6.54-8.91-7.66-17.96Z"/>
            </g>
            <g>
              <path class="cls-2" d="M3724.46,266.24l-190.78,11.17c-3.01.18-5.49,3.82-7.03,9.43l198.33-11.61-.53-8.98Z"/>
              <path class="cls-2" d="M3536.82,330.93l190.78-11.17-1.29-21.99-200.73,11.75c1.58,12.45,6.27,21.7,11.24,21.41Z"/>
              <path class="cls-8" d="M3526.66,286.84c-1.32,4.82-1.93,11.09-1.53,17.92.1,1.63.25,3.21.45,4.75l200.73-11.75-1.32-22.54-198.33,11.61Z"/>
              <path class="cls-18" d="M3530.14,309.25c-.18-1.5-.33-3.04-.42-4.61-.4-6.86.19-13.17,1.48-18.07,1.17-4.44,2.92-7.72,5.04-9.16-.76-.4-1.54-.6-2.33-.56-3.14.18-5.73,4.05-7.3,9.99-1.29,4.9-1.88,11.21-1.48,18.07.09,1.58.24,3.11.43,4.61,1.59,12.91,6.42,22.53,11.56,22.23.79-.05,1.54-.34,2.25-.83-4.21-2.19-7.89-10.75-9.24-21.67Z"/>
            </g>
            <g>
              <path class="cls-2" d="M3936.72,248.38l-229.2,13.42c-3.61.21-6.6,4.59-8.44,11.32l238.27-13.95-.63-10.79Z"/>
              <path class="cls-2" d="M3711.29,326.09l229.2-13.42-1.55-26.42-241.15,14.12c1.9,14.96,7.53,26.07,13.5,25.72Z"/>
              <path class="cls-8" d="M3699.08,273.12c-1.58,5.79-2.32,13.33-1.84,21.53.11,1.96.3,3.86.54,5.71l241.15-14.12-1.59-27.08-238.27,13.95Z"/>
              <path class="cls-18" d="M3703.26,300.05c-.22-1.8-.39-3.65-.5-5.54-.48-8.24.23-15.82,1.78-21.71,1.41-5.33,3.5-9.28,6.06-11.01-.92-.48-1.85-.73-2.8-.67-3.77.22-6.89,4.87-8.77,12-1.55,5.89-2.26,13.47-1.78,21.71.11,1.9.29,3.74.51,5.54,1.91,15.51,7.72,27.07,13.89,26.71.95-.06,1.85-.41,2.7-.99-5.06-2.63-9.48-12.91-11.1-26.04Z"/>
            </g>
            <g>
              <path class="cls-8" d="M3912.63,241.17c-8.55.5-14.4,19.22-13.08,41.81,1.32,22.59,9.32,40.5,17.87,40l39.47-2.31-4.79-81.82-39.47,2.31Z"/>
              <path class="cls-2" d="M3904.42,282.92c-1.17-19.99,3.14-36.99,9.98-41.63-1.17-.61-2.36-.92-3.57-.85-8.77.51-14.77,19.72-13.42,42.89s9.56,41.55,18.33,41.04c1.21-.07,2.35-.53,3.44-1.26-7.33-3.81-13.59-20.19-14.77-40.18Z"/>
              <g>
                <ellipse class="cls-12" cx="3954.5" cy="279.99" rx="15.5" ry="40.98" transform="translate(-9.6 231.61) rotate(-3.35)"/>
                <path class="cls-8" d="M3956.96,321.98c-9.28.54-17.63-17.47-19.01-41.02-1.38-23.54,4.81-42.41,14.09-42.95,9.28-.54,17.63,17.47,19.01,41.01,1.38,23.54-4.81,42.41-14.09,42.95ZM3952.17,240.16c-7.81.46-13.33,19.08-12.07,40.68,1.26,21.59,8.93,39.45,16.73,38.99,7.8-.46,13.33-19.08,12.07-40.68-1.26-21.59-8.93-39.45-16.73-38.99Z"/>
              </g>
            </g>
          </g>
          <path class="cls-5" d="M3638.44,339.54s-13.67-18.23-12.26-31.23c1.41-13.01,9.81-14.02,13.75-13.21,3.95.8,1.9,10.32,3.53,15.87,1.62,5.54,15.37,18.2,15.37,18.2l-20.39,10.38Z"/>
          <g>
            <path class="cls-5" d="M3634.71,263.5c-2.43,7.31-5.48,17.98,6,17.66s15.27-10.43,14.29-16.37c-.97-5.95-18.21-7.56-20.29-1.28Z"/>
            <path class="cls-5" d="M3665.01,262.06c-2.43,7.31-5.48,17.98,6,17.66,11.48-.32,15.27-10.43,14.29-16.37-.97-5.95-18.21-7.56-20.29-1.28Z"/>
            <path class="cls-5" d="M3681.08,262.52c-1.63,6.57-3.65,16.17,4.44,16.01,8.09-.15,10.64-9.24,9.89-14.62-.76-5.38-12.93-7.03-14.32-1.39Z"/>
            <path class="cls-5" d="M3649.99,261.77c-2.36,8.46-5.31,20.82,6.17,20.56,11.48-.26,15.18-11.96,14.14-18.88-1.03-6.91-18.29-8.95-20.32-1.68Z"/>
          </g>
        </g>
      </g>
    </g>
    <g>
      <ellipse class="cls-13" cx="3950.57" cy="3263.15" rx="493.9" ry="52.74"/>
      <g>
        <g>
          <g>
            <polygon class="cls-14" points="4016.47 3192.8 4016.47 3124.87 4076.62 3124.87 4079.45 3197.75 4016.47 3192.8"/>
            <path class="cls-20" d="M4013.64,3184.31s31.13,12.03,67.93,0c0,0,79.95,31.13,85.61,45.28,5.66,14.15,0,17.69,0,17.69h-159.2s-5.66-38.92,5.66-62.97Z"/>
          </g>
          <g>
            <polygon class="cls-14" points="3668.71 3181.48 3676.85 3113.55 3730.62 3116.74 3724.61 3182.89 3668.71 3181.48"/>
            <path class="cls-20" d="M3725.42,3173.69s-37.96,4.25-56.36-2.83c0,0-21.23,36.09-21.23,52.36,0,16.27,3.54,24.06,3.54,24.06h84.66s7.78-17.69-10.61-73.59Z"/>
          </g>
          <path class="cls-10" d="M3800.2,2243.02s-77.36,503.78-101.89,626.42c-24.53,122.64-39.62,252.83-39.62,252.83,0,0,49.06,22.64,90.57,0l224.53-711.33s18.87,213.21,9.43,303.78c-9.43,90.57-5.66,369.19,11.32,417.61,0,0,73.59,19.5,94.34,0,0,0,22.64-223.41,52.83-440.33,30.19-216.91,56.6-409.37,56.6-448.99h-398.12Z"/>
        </g>
        <path class="cls-12" d="M3823.31,1901.51l-70.76,48.11s-69.34-58.02-70.76-108.96c0,0,38.21-48.11,87.74-100.47,49.53-52.36,113.21-83.49,226.42-83.49,113.21,0,172.24,19.59,171.3,126l-.07,100.42s25.69,207.28,42.45,390.57c0,0-261.8,66.51-433.02-18.4,0,0,38.21-314.15,46.7-353.78Z"/>
        <path class="cls-14" d="M3949.88,1658.62s38.96,32.4,51.16,32.4c6.45,0,31.68-17.47,42.3-33.33,0,0-20.33-2.59-20.33-16.74,0-14.15.18-27.77.18-27.77l-64.45-5.61s10.16,43.78-8.86,51.05Z"/>
        <g>
          <path class="cls-14" d="M3996.89,1503.86c32.55-.71,53.77,9.91,62.26,36.09,8.49,26.18,9.2,83.49-20.52,89.86s-65.83-6.97-80.66-20.55c-28.3-25.91-21.23-74.26-12.03-89.12,9.2-14.86,50.94-16.27,50.94-16.27Z"/>
          <path class="cls-20" d="M4046.9,1519.19s-16.98-6.96-36.09-5.9c-19.1,1.06-24.89,24.88-24.89,33.02,0,8.14-11.47,20.79-18.75,13.92-14.98-14.15-26.9,18.88-9.91,20.05,7.01.48-7.38,12.17-7.38,12.17l-3.42,1.94s-27.04-20.48-13.25-66.48c13.8-45.99,53.34-40.93,69.81-40.89,42.22.12,49.91,29.59,43.87,32.16Z"/>
          <g>
            <g>
              <path class="cls-10" d="M4039.85,1577.74c-.61.02-1.19-.34-1.44-.94-.32-.77.05-1.65.82-1.97l7.57-3.11-11.25-19c-.42-.72-.19-1.64.53-2.07.71-.42,1.64-.19,2.07.53l12.14,20.5c.22.38.27.83.13,1.25-.14.42-.45.75-.86.92l-9.19,3.78c-.17.07-.35.11-.53.11Z"/>
              <circle class="cls-10" cx="4056.19" cy="1553.45" r="3.24"/>
              <circle class="cls-10" cx="4017.03" cy="1559.86" r="3.24"/>
            </g>
            <path class="cls-12" d="M4038.46,1604.17c7.15-.73,12.35-7.11,11.62-14.26l-25.88,2.64c.73,7.15,7.11,12.35,14.26,11.62Z"/>
          </g>
        </g>
        <path class="cls-17" d="M3928.5,2325.77s51.16-49.77,39.84-162.62c-11.32-112.85-45.72-162.87-39.84-270.88,5.88-108.01,21.38-233.64,21.38-233.64l-58.21,9.28s-58.12,166.29-68.36,233.61c-10.24,67.32-49.32,345.12-64.41,396.95,0,0,88.37,54.72,169.6,27.31Z"/>
        <g>
          <g>
            <path class="cls-14" d="M3742.53,1940.55l-36.67,30.3s124.53,131.61,134.44,144.34c9.91,12.74-12.74,50.94-60.85,12.74-48.11-38.21-145.76-87.74-174.06-144.34-15.82-31.64,81.51-131.54,81.51-131.54l55.64,88.5Z"/>
            <g>
              <path class="cls-14" d="M3791.36,2136.17s16.39,13.69-4.13,54.02c-10.62,20.88-5.66,36.79,17.69,31.84,23.35-4.95,60.97-90.12,29.78-113.34-31.19-23.22-43.33,27.48-43.33,27.48Z"/>
              <path class="cls-14" d="M3846.54,2135s5.54,38.92,0,50.94c-5.54,12.03-15.45,0-15.45,0l15.45-50.94Z"/>
            </g>
          </g>
          <path class="cls-17" d="M3823.31,1901.51l-100.2,69.54,68.81,79.25-38.21,73.24s-155.66-114.28-164.15-136.92c-8.49-22.64,57.54-104.36,92.24-145.96,34.7-41.6,108.98-166.7,242.2-177.87l-100.69,238.72Z"/>
        </g>
        <path class="cls-17" d="M4167.18,1883.11s34.86-178.63-10.45-198.18c-51.33-22.14-48.76-25.67-92.49-25.67,0,0,28.19,85.36,15.2,130.65-12.99,45.28-27.32,124.53-18.74,166.98,8.58,42.45,17.58,254.72,18.74,311.32,1.16,56.6,137.91,50.94,137.91,50.94,0,0-20.2-300.4-50.17-436.05Z"/>
        <g>
          <path class="cls-7" d="M3983.84,1688.87s-3.4,11.16,2.89,17.73c6.28,6.57,13.19,7.82,22.31.7,9.12-7.12,13.47-28.35,5.95-30.41-7.52-2.06-26.12.9-31.15,11.97Z"/>
          <path class="cls-7" d="M3992.7,1684.93c-25.32,32.59-55.79,70.4-98.5,72.71-22.93,1-46.1-5.39-70.9-.91-13.92,2.39-27.42,8.71-38.34,16.78-28.14,20-47.91,55.62-71.03,75.08-49.63,40.12-114.63,31.95-177.63,24.27-3.42-.42-6.87-.22-10.22.58l-25.59,6.08c-1.39.33-2,2.03-1.07,3.12,6.56,7.56,16.09,14.47,21.73,18.25,2.95,1.97,6.25,3.35,9.71,4.12l3.55.79h0c103.95,22.55,190.6,18.51,252.18-81.75,19.74-28.66,40.93-39.71,73.58-37.32,73.17,7.54,112.25-32.56,151.46-87.6,0,0-18.92-14.2-18.92-14.2Z"/>
        </g>
      </g>
      <g>
        <path class="cls-17" d="M4109.39,1665.32c56.23,14.95,161.89,93.01,161.89,93.01l-151.81-195.23,35.61-42.8s249.27,131.2,272.7,251.15c23.43,119.95-186.33,160.41-270.83,102.15-84.49-58.27-47.56-208.27-47.56-208.27Z"/>
        <path class="cls-14" d="M4148.66,1528s-24.52-23.4-35.06-25.98c-10.54-2.58-40.31-3.98-52.71,8.43-12.4,12.42-2.1,22.28,9.37,21.09,15.41-1.6,20.38-2.11,33.74,3.05,12.69,4.9,20.86,22.02,20.86,22.02l23.8-28.61Z"/>
      </g>
    </g>
    <g>
      <ellipse class="cls-13" cx="2286.18" cy="3263.15" rx="493.9" ry="52.74"/>
      <g>
        <g>
          <g>
            <polygon class="cls-5" points="2341.33 3194.73 2341.33 3126.99 2401.31 3126.99 2404.13 3199.67 2341.33 3194.73"/>
            <path class="cls-20" d="M2338.5,3186.26s31.05,12,67.74,0c0,0,79.74,31.05,85.38,45.16,5.65,14.11,0,17.64,0,17.64h-158.77s-5.65-38.81,5.65-62.8Z"/>
          </g>
          <g>
            <polygon class="cls-5" points="1994.51 3183.44 2002.62 3115.7 2056.25 3118.87 2050.25 3184.85 1994.51 3183.44"/>
            <path class="cls-20" d="M2051.07,3175.68s-37.86,4.23-56.21-2.82c0,0-21.17,35.99-21.17,52.22,0,16.23,3.53,23.99,3.53,23.99h84.43s7.76-17.64-10.58-73.39Z"/>
          </g>
          <path class="cls-17" d="M2125.64,2247.53s-77.15,502.41-101.61,624.73c-24.46,122.31-39.52,252.15-39.52,252.15,0,0,48.92,22.58,90.32,0l223.92-709.4s18.82,212.63,9.41,302.95c-9.41,90.32-5.65,368.19,11.29,416.48,0,0,73.39,19.44,94.09,0,0,0,22.58-222.81,52.69-439.13,30.11-216.33,56.45-408.26,56.45-447.78h-397.04Z"/>
        </g>
        <g>
          <path class="cls-20" d="M2412.66,1533.27c7.07,18.57,5.14,39.92,13.86,57.77,6.76,13.83,19.52,24.62,23.54,39.47,4.12,15.2-1.85,31.24-9.1,45.21-33.06,63.65-96.62,110.57-167.19,123.41-25.95,4.72-52.47,5.07-78.84,5.38-25.17.31-51.19.44-74.35-9.43-23.16-9.87-42.82-32.58-40.92-57.68,1.81-23.9,21.71-42.29,41.97-55.1,20.27-12.8,43.03-23.31,57.44-42.47,12.96-17.24,17.46-39.39,28.46-57.95,10.84-18.29,27.47-32.29,43.78-45.93,15.42-12.89,16.82-22.45,34.33-32.33,18.46-10.42,47.18-22.06,77.05-14.21,22.14,5.82,41.35,21.21,49.97,43.85Z"/>
          <path class="cls-5" d="M2501.85,2100.67s-5.53,38.81,0,50.81c5.53,12,15.41,0,15.41,0l-15.41-50.81Z"/>
          <path class="cls-6" d="M2320.86,1662.79c-112.9,0-176.41,31.05-225.8,83.27-49.39,52.22-87.5,100.2-87.5,100.2,1.41,50.81,70.56,108.67,70.56,108.67l70.56-47.98c50.14,45.43-16.12,355.89-46.57,352.82,170.76,84.68,431.85,18.35,431.85,18.35-22.88-123.63-32.72-208.48-35.95-266.7-.36-14.51,2.53-23.05,16.09-57.04,6.56-16.46,4.86-38.33.37-58.92l29.81,35.83c31.04-5.64,89.88-83.6,89.88-83.6-108.67-176.41-200.4-184.88-313.3-184.88Z"/>
          <g>
            <g>
              <path class="cls-5" d="M2376.13,1628.88l-.21,34.45s-4.13,31.75-64.03,6.03c0,0-2.55-29.52-4.47-40.57-2.48-14.24-6.69-53.22-6.69-53.22l75.4,53.31Z"/>
              <path class="cls-15" d="M2376.1,1628.07l-.07,16.78s-23.96,6.57-50.31-16.15l50.38-.63Z"/>
              <path class="cls-5" d="M2331.07,1519.92c12.65-4.58,33.75-7.86,47.6,10.53,13.85,18.39,21.53,32.55,20.86,56.81-.67,24.26-4.79,38.15-23.87,46.61-19.09,8.46-35.57,4.2-51.68-6.26-16.11-10.46-28.26-26.57-26.35-51.22,1.91-24.65,3.48-45.61,33.44-56.46Z"/>
              <path class="cls-20" d="M2316.3,1578.73c-8.59,5.83-8.54,5.34-10.72,13.58-2.18,8.24-5.72,18.69-2.23,22.24,3.49,3.54,2.28,13.5,2.47,18.04.35,8.06-30.61,17.79-38.24,7.02-7.63-10.77-7.99-47.8-4.21-75.19,3.78-27.39,16.86-44.65,28.96-51.56,12.11-6.9,16.58-8.88,30.51-13.64,16.14-5.51,23.82-2.62,32.58,6.84,8.76,9.47,7.15,11.73,7.15,11.73-6.67,3.43-14.39,6.79-21.34,37.17-5.28,23.06-24.94,23.75-24.94,23.75Z"/>
              <g>
                <g>
                  <path class="cls-10" d="M2373.32,1588.6c-.59.11-1.22-.15-1.55-.69-.43-.7-.2-1.62.5-2.05l6.92-4.19-13.86-16.83c-.52-.63-.43-1.58.2-2.1.63-.52,1.58-.43,2.1.2l14.96,18.16c.28.33.39.77.32,1.2-.07.43-.33.8-.7,1.02l-8.39,5.08c-.16.1-.33.16-.5.19Z"/>
                  <circle class="cls-10" cx="2385.58" cy="1562.42" r="3.2"/>
                  <circle class="cls-10" cx="2348.35" cy="1574.61" r="3.2"/>
                </g>
                <path class="cls-12" d="M2376.68,1606.88c5.88-1.54,9.4-7.55,7.86-13.44l-21.3,5.57c1.54,5.88,7.55,9.4,13.44,7.86Z"/>
              </g>
              <circle class="cls-5" cx="2309.73" cy="1597.42" r="19.81"/>
            </g>
            <path class="cls-5" d="M2286.18,1663.85s53.46,68.26,82.39,68.62c28.93.35,32.5-65.74,32.5-65.74,0,0-46.81-8.51-114.89-2.87Z"/>
          </g>
          <path class="cls-3" d="M2148.69,1906.94s35.9-8.94,39.43-31.52c0,0,8.31-12.94-39.43,31.52Z"/>
          <path class="cls-3" d="M2508.32,1888.04s-14.91-47.2-15.85-78.25c0,0,9.52,52.23,31.58,97.15l-15.73-18.9Z"/>
          <g>
            <path class="cls-5" d="M2068.13,1945.88l-36.58,30.22s124.19,131.25,134.07,143.95c9.88,12.7-12.7,50.81-60.68,12.7-47.98-38.1-145.36-87.5-173.59-143.95-15.78-31.56,81.29-131.18,81.29-131.18l55.49,88.26Z"/>
            <g>
              <path class="cls-5" d="M2116.82,2140.97s16.34,13.65-4.12,53.87c-10.59,20.82-5.65,36.69,17.64,31.75,23.29-4.94,60.8-89.88,29.69-113.03-31.11-23.15-43.22,27.41-43.22,27.41Z"/>
              <path class="cls-5" d="M2171.85,2139.8s5.53,38.81,0,50.81c-5.53,12-15.41,0-15.41,0l15.41-50.81Z"/>
            </g>
          </g>
        </g>
      </g>
      <path class="cls-5" d="M2625.83,1855.6s65.66,103.4,80.09,110.99c14.43,7.59,155.16-99.01,155.16-99.01l13.23,69.63s-145.34,125.38-180.27,131.15c-34.92,5.77-140.62-140.34-140.62-140.34l72.4-72.42Z"/>
      <path class="cls-5" d="M2895.75,1820.56c-12.05,2.8-17.02,23.36-12.34,39.37,4.69,16.01,9.62,46.73,26.05,41.12,16.43-5.61,9.56-30.32,8.62-36.24-.94-5.92-1.25-49.15-22.33-44.24Z"/>
    </g>
  </g>
</svg>